<!--
  - Copyright (c) Kolyada N.V. <mrsky1001.work@gmail.com> 2023
  -->

<svg id="SvgjsSvg1156" width="256" height="256" xmlns="http://www.w3.org/2000/svg" version="1.1" xmlns:xlink="http://www.w3.org/1999/xlink" xmlns:svgjs="http://svgjs.com/svgjs"><defs id="SvgjsDefs1157"></defs><g id="SvgjsG1158"><svg xmlns="http://www.w3.org/2000/svg" data-name="Layer 1" viewBox="0 0 168 168" width="256" height="256"><path fill="#00bbff" d="M103 34a2 2 0 0 0-2-2H45a2 2 0 0 0 0 4h56a2 2 0 0 0 2-2zM51.324 62.448a2 2 0 0 0 2.76 0l6.296-6a2 2 0 1 0-2.76-2.896l-4.916 4.685-2.324-2.214a2 2 0 1 0-2.76 2.895z" class="color0bceb2 svgShape"></path><path fill="#2d4b56" d="m47.62 78.918 3.704 3.53a2 2 0 0 0 2.76 0l6.296-6a2 2 0 0 0-2.76-2.896l-4.916 4.685-2.324-2.214a2 2 0 1 0-2.76 2.895Z" class="color2d4356 svgShape"></path><path fill="#00bbff" d="m47.62 98.918 3.704 3.53a2 2 0 0 0 2.76 0l6.296-6a2 2 0 0 0-2.76-2.896l-4.916 4.685-2.324-2.214a2 2 0 1 0-2.76 2.895Z" class="color0bceb2 svgShape"></path><path fill="#2d4b56" d="m47.62 118.918 3.704 3.53a2 2 0 0 0 2.76 0l6.296-6a2 2 0 1 0-2.76-2.896l-4.916 4.685-2.324-2.214a2 2 0 1 0-2.76 2.895zM99 56a2 2 0 0 0-2-2H69a2 2 0 0 0 0 4h28a2 2 0 0 0 2-2z" class="color2d4356 svgShape"></path><path fill="#00bbff" d="M69 78h10v-2a10.004 10.004 0 0 1 .202-2H69a2 2 0 0 0 0 4Z" class="color0bceb2 svgShape"></path><path fill="#2d4b56" d="M69 98h10v-4H69a2 2 0 0 0 0 4Z" class="color2d4356 svgShape"></path><path fill="#00bbff" d="M69 118h10v-4H69a2 2 0 0 0 0 4zm-25.641 24a2 2 0 0 0 2 2H79v-4H45.359a2 2 0 0 0-2 2zM130 78H96a4.005 4.005 0 0 0-4 4v10a4.005 4.005 0 0 0 4 4h34a4.005 4.005 0 0 0 4-4V82a4.005 4.005 0 0 0-4-4zM96 92V82h34l.002 10zm-3 20h4a2 2 0 0 0 0-4h-4a2 2 0 0 0 0 4z" class="color0bceb2 svgShape"></path><path fill="#2d4b56" d="M105 112h4a2 2 0 0 0 0-4h-4a2 2 0 0 0 0 4Z" class="color2d4356 svgShape"></path><path fill="#00bbff" d="M117 112h4a2 2 0 0 0 0-4h-4a2 2 0 0 0 0 4Z" class="color0bceb2 svgShape"></path><path fill="#2d4b56" d="M129 112h4a2 2 0 0 0 0-4h-4a2 2 0 0 0 0 4zm-36 8h4a2 2 0 0 0 0-4h-4a2 2 0 0 0 0 4z" class="color2d4356 svgShape"></path><path fill="#00bbff" d="M105 120h4a2 2 0 0 0 0-4h-4a2 2 0 0 0 0 4Z" class="color0bceb2 svgShape"></path><path fill="#2d4b56" d="M117 120h4a2 2 0 0 0 0-4h-4a2 2 0 0 0 0 4Z" class="color2d4356 svgShape"></path><path fill="#00bbff" d="M129 120h4a2 2 0 0 0 0-4h-4a2 2 0 0 0 0 4zm-36 8h4a2 2 0 0 0 0-4h-4a2 2 0 0 0 0 4z" class="color0bceb2 svgShape"></path><path fill="#2d4b56" d="M105 128h4a2 2 0 0 0 0-4h-4a2 2 0 0 0 0 4Z" class="color2d4356 svgShape"></path><path fill="#00bbff" d="M117 128h4a2 2 0 0 0 0-4h-4a2 2 0 0 0 0 4Z" class="color0bceb2 svgShape"></path><path fill="#2d4b56" d="M129 128h4a2 2 0 0 0 0-4h-4a2 2 0 0 0 0 4zm-36 8h4a2 2 0 0 0 0-4h-4a2 2 0 0 0 0 4z" class="color2d4356 svgShape"></path><path fill="#00bbff" d="M105 136h4a2 2 0 0 0 0-4h-4a2 2 0 0 0 0 4Z" class="color0bceb2 svgShape"></path><path fill="#2d4b56" d="M117 136h4a2 2 0 0 0 0-4h-4a2 2 0 0 0 0 4Z" class="color2d4356 svgShape"></path><path fill="#00bbff" d="M129 136h4a2 2 0 0 0 0-4h-4a2 2 0 0 0 0 4Z" class="color0bceb2 svgShape"></path><path fill="#2d4b56" d="M31 30v8.18a11.16 11.16 0 0 1 4 0V30a2.002 2.002 0 0 1 2-2h72a2.002 2.002 0 0 1 2 2v36h4V30a6.007 6.007 0 0 0-6-6H37a6.007 6.007 0 0 0-6 6zm-6 20.002v70.028a2.006 2.006 0 0 0 .212.897l6 11.969a2 2 0 0 0 3.576 0l6-11.97a2.006 2.006 0 0 0 .212-.896V50.002a8 8 0 1 0-16 0zm4 0a4 4 0 1 1 8 0V56h-8zM29 60h8v27h-8zm0 31h8v24h-8zm0 28h8v.557l-4 7.98-4-7.98zm57.058-99a3 3 0 1 0-3-3 3.003 3.003 0 0 0 3 3zm0-4.5a1.5 1.5 0 1 1-1.5 1.5 1.501 1.501 0 0 1 1.5-1.5zM115 4.189a2 2 0 1 0 2 2 2.002 2.002 0 0 0-2-2zm0 3a1 1 0 1 1 1-1 1.001 1.001 0 0 1-1 1zM61.058 2a2 2 0 1 0 2 2 2.002 2.002 0 0 0-2-2zm0 3a1 1 0 1 1 1-1 1.001 1.001 0 0 1-1 1zm74 18a2 2 0 1 0 2 2 2.002 2.002 0 0 0-2-2zm0 3a1 1 0 1 1 1-1 1.001 1.001 0 0 1-1 1zM11.5 29.37a2 2 0 1 0-2 2 2.002 2.002 0 0 0 2-2zm-3 0a1 1 0 1 1 1 1 1.001 1.001 0 0 1-1-1z" class="color2d4356 svgShape"></path><path fill="#00bbff" d="m37.641 17.011 1.487-1.955-.939-.532-.954 2.19h-.032l-.97-2.175-.955.548 1.471 1.909v.031l-2.301-.297v1.064l2.316-.297v.031l-1.486 1.908.891.564 1.018-2.206h.031l.939 2.19.986-.563-1.502-1.878v-.031l2.362.282V16.73l-2.362.312v-.031zM4.834 5.067l-.856 1.099.514.324.586-1.27h.017l.541 1.261.568-.324-.865-1.082v-.018l1.36.163v-.613l-1.36.18v-.018l.856-1.126-.54-.306-.55 1.261h-.018l-.559-1.253-.55.316.848 1.099v.018l-1.325-.171v.613l1.333-.171v.018zM159.058 47.713V46.67l-2.317.307v-.031l1.458-1.918-.921-.522-.936 2.148h-.031l-.951-2.133-.937.538 1.443 1.872v.031l-2.257-.292v1.043l2.272-.291v.031l-1.458 1.872.875.553.998-2.165h.03l.921 2.149.967-.552-1.473-1.842v-.031l2.317.276zM158.501 5.586l1.258-1.655-.794-.45-.808 1.853h-.027l-.82-1.84-.809.464 1.245 1.615v.026l-1.946-.251v.9l1.959-.252v.027l-1.258 1.615.755.477.861-1.867h.026l.795 1.853.834-.476-1.271-1.589v-.027l1.998.239v-.9l-1.998.264v-.026z" class="color0bceb2 svgShape"></path><circle cx="2" cy="150" r="2" fill="#2d4b56" class="color2d4356 svgShape"></circle><path fill="#2d4b56" d="M11 148H8a2 2 0 0 0 0 4h3a2 2 0 0 0 0-4zm149 0h-3a2 2 0 0 0 0 4h3a2 2 0 0 0 0-4z" class="color2d4356 svgShape"></path><circle cx="166" cy="150" r="2" fill="#2d4b56" class="color2d4356 svgShape"></circle><path fill="#00bbff" d="M118.154 156h-8.308a2.006 2.006 0 0 0 0 4h8.308a2.006 2.006 0 0 0 0-4zm-60 0h-8.308a2.006 2.006 0 0 0 0 4h8.308a2.006 2.006 0 0 0 0-4zM104 156H64a2 2 0 0 0 0 4h15.94v2H72a2 2 0 0 0 0 4h25a2 2 0 0 0 0-4h-8.94v-2H104a2 2 0 0 0 0-4z" class="color0bceb2 svgShape"></path><path fill="#2d4b56" d="M150.721 148h-8.071a5.96 5.96 0 0 0 .35-2V76a6.007 6.007 0 0 0-6-6H89a6.007 6.007 0 0 0-6 6v70a5.96 5.96 0 0 0 .35 2H37a2.002 2.002 0 0 1-2-2v-8.354a5.832 5.832 0 0 1-4 0V146a5.96 5.96 0 0 0 .35 2H17.279a2.017 2.017 0 1 0 0 4H150.72a2.017 2.017 0 1 0 0-4ZM87 76a2.002 2.002 0 0 1 2-2h48a2.002 2.002 0 0 1 2 2v24H87Zm0 28h52v36H87Zm2 44a2.002 2.002 0 0 1-2-2v-2h52v2a2.002 2.002 0 0 1-2 2Z" class="color2d4356 svgShape"></path></svg></g></svg>
